<?xml version="1.0" encoding="utf-8"?>
<svg viewBox="154.125 129.134 234.896 234.891" xmlns="http://www.w3.org/2000/svg" xmlns:bx="https://boxy-svg.com">
  <path opacity="0.4" d="M 271.569 364.025 C 262.536 364.025 253.516 360.595 246.622 353.747 L 238.048 345.172 C 234.722 341.86 230.272 340.028 225.551 340.018 L 213.487 340.018 C 193.99 340.018 178.124 324.148 178.124 304.653 L 178.124 292.577 C 178.112 287.868 176.28 283.416 172.954 280.069 L 164.522 271.648 C 150.71 257.917 150.651 235.473 164.393 221.648 L 172.966 213.063 C 176.28 209.738 178.112 205.287 178.124 200.565 L 178.124 188.515 C 178.124 169.006 193.99 153.138 213.487 153.138 L 225.563 153.138 C 230.272 153.138 234.712 151.305 238.06 147.958 L 246.504 139.537 C 260.235 125.724 282.667 125.653 296.504 139.407 L 305.078 147.981 C 308.414 151.305 312.853 153.138 317.562 153.138 L 329.637 153.138 C 349.134 153.138 365.003 169.006 365.003 188.515 L 365.003 200.576 C 365.014 205.287 366.847 209.738 370.17 213.085 L 378.603 221.52 C 385.286 228.167 388.986 237.023 389.021 246.478 C 389.045 255.874 385.426 264.718 378.838 271.401 C 378.721 271.52 378.615 271.648 378.498 271.752 L 370.159 280.092 C 366.847 283.416 365.014 287.868 365.003 292.589 L 365.003 304.653 C 365.003 324.148 349.134 340.018 329.637 340.018 L 317.562 340.018 C 312.853 340.028 308.401 341.86 305.067 345.184 L 296.621 353.618 C 289.738 360.548 280.648 364.025 271.569 364.025" fill="#393939" style=""/>
  <path style="stroke: rgb(0, 0, 0); stroke-opacity: 0; fill: rgb(0, 255, 255);" d="M 228.444 250.263 C 228.444 250.263 235.15308797935063 245.59150693759008 238.588 246.671 C 244.38600900542042 248.49314579573374 249.17436482771473 271.58472692804224 256.44 271.599 C 267.74807088407897 271.6212142876163 289.5471051655961 226.33269933948552 299.92 211.386 C 305.9471114855619 202.70130544766872 310.05673747891694 191.4924121899108 313.828 190.522 C 315.5453118991712 190.08010543776302 317.96081791795365 191.06760119806194 318.442 192.919 C 320.70099797945164 201.61073294016077 272.10154494681495 288.33633675642307 255.342 288.579 C 244.63008673571892 288.73409893770236 228.444 250.263 228.444 250.263 C 228.44400000000005 250.26300000000006 228.444 250.26299999999995 228.444 250.263" bx:d="M 228.444 250.263 R 238.588 246.671 R 256.44 271.599 R 299.92 211.386 R 313.828 190.522 R 318.442 192.919 R 255.342 288.579 R 228.444 250.263 Z 1@c275ffb4"/>
</svg>