<?xml version="1.0" encoding="utf-8"?>
<svg viewBox="138.414 157.924 177.205 141.026" xmlns="http://www.w3.org/2000/svg">
  <defs>
    <linearGradient gradientUnits="userSpaceOnUse" x1="264.611" y1="211.875" x2="264.611" y2="284.011" id="gradient-6">
      <stop offset="0" style="stop-color: rgb(18, 137, 107);"/>
      <stop offset="1" style="stop-color: rgba(143, 139, 7, 1)"/>
    </linearGradient>
    <linearGradient gradientUnits="userSpaceOnUse" x1="152.38" y1="211.685" x2="152.38" y2="283.821" id="gradient-3" gradientTransform="matrix(1.000004, 0, 0, 1.000004, 112.229929, 0.188167)">
      <stop offset="0" style=""/>
      <stop offset="1" style="stop-color: rgb(2, 2, 0);"/>
    </linearGradient>
    <linearGradient gradientUnits="userSpaceOnUse" x1="189.414" y1="211.522" x2="189.414" y2="283.658" id="gradient-4">
      <stop offset="0" style="stop-color: rgba(18, 137, 107, 1)"/>
      <stop offset="1" style="stop-color: rgb(210, 184, 104);"/>
    </linearGradient>
    <linearGradient gradientUnits="userSpaceOnUse" x1="152.38" y1="211.685" x2="152.38" y2="283.821" id="gradient-1" gradientTransform="matrix(1.000001, 0, 0, 1.000001, 37.034752, -0.162951)">
      <stop offset="0" style=""/>
      <stop offset="1" style="stop-color: rgb(2, 2, 0);"/>
    </linearGradient>
    <linearGradient gradientUnits="userSpaceOnUse" x1="227.012" y1="172.864" x2="227.012" y2="245" id="gradient-0">
      <stop offset="0" style="stop-color: rgba(18, 137, 107, 1)"/>
      <stop offset="1" style="stop-color: rgb(156, 152, 45);"/>
    </linearGradient>
    <linearGradient gradientUnits="userSpaceOnUse" x1="152.38" y1="211.685" x2="152.38" y2="283.821" id="gradient-2" gradientTransform="matrix(1.000002, 0.000001, -0.000001, 1.000002, 74.631928, -38.821943)">
      <stop offset="0" style=""/>
      <stop offset="1" style="stop-color: rgb(2, 2, 0);"/>
    </linearGradient>
  </defs>
  <path d="M 262.866 211.805 C 255.733 211.805 249.007 229.717 243.075 233.681 C 237.144 237.644 234.019 227.55 231.289 234.14 C 228.559 240.731 227.845 247.983 229.237 254.979 C 230.628 261.976 234.063 268.403 239.108 273.447 C 244.152 278.491 250.578 281.926 257.575 283.318 C 264.571 284.709 271.823 283.995 278.414 281.265 C 285.005 278.535 290.638 273.912 294.601 267.981 C 298.564 262.05 300.679 255.076 300.679 247.943 L 282.645 247.943 C 282.645 251.51 281.588 254.996 279.606 257.962 C 277.624 260.928 274.808 263.239 271.513 264.604 C 268.217 265.969 264.591 266.326 261.093 265.63 C 257.595 264.934 254.382 263.217 251.86 260.695 C 249.337 258.173 247.62 254.959 246.924 251.461 C 246.228 247.963 246.585 244.337 247.95 241.042 C 249.315 237.746 251.627 234.93 254.592 232.948 C 257.558 230.967 261.045 229.909 264.611 229.909 L 262.866 211.805 Z" style="fill-opacity: 0.66; stroke-miterlimit: 10; stroke: url(#gradient-3); stroke-width: 4px; fill: url(#gradient-6);" transform="matrix(0.707107, -0.707107, 0.707107, 0.707107, -97.819191, 259.729248)"/>
  <path d="M 189.414 211.522 C 182.281 211.522 175.308 213.637 169.376 217.601 C 163.445 221.564 158.822 227.197 156.092 233.787 C 153.362 240.378 152.648 247.63 154.04 254.626 C 155.431 261.623 158.866 268.05 163.911 273.094 C 168.955 278.138 175.381 281.573 182.378 282.965 C 189.374 284.356 196.626 283.642 203.217 280.912 C 209.808 278.182 201.03 277.301 204.097 270.503 C 207.164 263.705 225.286 256.73 225.307 249.617 L 207.448 247.59 C 207.448 251.157 206.391 254.643 204.409 257.609 C 202.427 260.575 199.611 262.886 196.316 264.251 C 193.02 265.616 189.394 265.973 185.896 265.277 C 182.398 264.581 179.185 262.864 176.663 260.342 C 174.14 257.82 172.423 254.606 171.727 251.108 C 171.031 247.61 171.388 243.984 172.753 240.689 C 174.118 237.393 176.43 234.577 179.395 232.595 C 182.361 230.614 185.848 229.556 189.414 229.556 L 189.414 211.522 Z" style="fill-opacity: 0.66; stroke-miterlimit: 10; stroke-width: 4px; stroke: url(#gradient-1); fill: url(#gradient-4);" transform="matrix(0.718705, -0.695315, 0.695315, 0.718705, -118.871635, 201.348419)"/>
  <path d="M 227.012 172.864 C 219.879 172.864 212.906 174.979 206.974 178.943 C 201.043 182.906 196.42 188.539 193.69 195.129 C 190.96 201.72 190.246 208.972 191.638 215.968 C 193.029 222.965 196.464 229.392 201.509 234.436 C 206.553 239.48 212.979 242.915 219.976 244.307 C 226.972 245.698 234.224 244.984 240.815 242.254 C 247.406 239.524 253.039 234.901 257.002 228.97 C 260.965 223.039 263.08 216.065 263.08 208.932 L 245.046 208.932 C 245.046 212.499 243.989 215.985 242.007 218.951 C 240.025 221.917 237.209 224.228 233.914 225.593 C 230.618 226.958 226.992 227.315 223.494 226.619 C 219.996 225.923 216.783 224.206 214.261 221.684 C 211.738 219.162 210.021 215.948 209.325 212.45 C 208.629 208.952 208.986 205.326 210.351 202.031 C 211.716 198.735 214.028 195.919 216.993 193.937 C 219.959 191.956 223.446 190.898 227.012 190.898 L 227.012 172.864 Z" style="fill-opacity: 0.66; stroke-miterlimit: 10; stroke-width: 4px; stroke: url(#gradient-2); fill: url(#gradient-0);" transform="matrix(-0.707107, 0.707107, -0.707107, -0.707107, 535.271362, 196.146957)"/>
</svg>