<?xml version="1.0" encoding="utf-8"?>
<svg viewBox="0 0 500 500" xmlns="http://www.w3.org/2000/svg" xmlns:bx="https://boxy-svg.com">
  <defs>
    <linearGradient gradientUnits="userSpaceOnUse" x1="237.585" y1="184.884" x2="237.585" y2="200.291" id="gradient-1" spreadMethod="pad" gradientTransform="matrix(0.087771, -0.778356, 1.967029, 0.135425, -163.742941, 349.645942)">
      <stop offset="0" style="stop-color: rgba(255, 170, 0, 0.44);"/>
      <stop offset="1" style="stop-color: rgb(15, 0, 91);"/>
    </linearGradient>
    <linearGradient gradientUnits="userSpaceOnUse" x1="152.38" y1="211.685" x2="152.38" y2="283.821" id="gradient-3">
      <stop offset="0" style=""/>
      <stop offset="1" style="stop-color: rgb(2, 2, 0);"/>
    </linearGradient>
    <linearGradient gradientUnits="userSpaceOnUse" x1="134.347" y1="211.685" x2="134.347" y2="247.753" id="gradient-2" spreadMethod="pad">
      <stop offset="0" style="stop-color: rgb(255, 210, 32);"/>
      <stop offset="1" style="stop-color: rgba(225, 255, 219, 0);"/>
    </linearGradient>
    <linearGradient gradientUnits="userSpaceOnUse" x1="171.042" y1="237.043" x2="171.042" y2="249.091" id="gradient-4" gradientTransform="matrix(0.958023, 0, 0, 1, 7.430913, -0.731543)">
      <stop offset="0" style="stop-color: rgba(10, 18, 83, 0.92);"/>
      <stop offset="1" style=""/>
    </linearGradient>
    <linearGradient gradientUnits="userSpaceOnUse" x1="171.042" y1="237.043" x2="171.042" y2="249.091" id="gradient-5" gradientTransform="matrix(0.401839, 0, 0, 0.856581, 114.083851, 36.60029)">
      <stop offset="0" style="stop-color: rgba(0, 0, 0, 0.96);"/>
      <stop offset="1" style="stop-color: rgba(0, 0, 0, 0)"/>
    </linearGradient>
    <linearGradient gradientUnits="userSpaceOnUse" x1="171.042" y1="237.043" x2="171.042" y2="249.091" id="gradient-6" gradientTransform="matrix(0.847986, 0, 0, 0.685086, 26.557926, 76.154785)">
      <stop offset="0" style="stop-color: rgba(31, 247, 146, 0.96);"/>
      <stop offset="1" style="stop-color: rgba(0, 0, 0, 0)"/>
    </linearGradient>
    <linearGradient gradientUnits="userSpaceOnUse" x1="134.347" y1="211.685" x2="134.347" y2="247.753" id="gradient-7" spreadMethod="pad" gradientTransform="matrix(1.000002, 0, 0, 1.000002, -0.70561, 35.533226)">
      <stop offset="0" style="stop-color: rgba(255, 210, 32, 0);"/>
      <stop offset="1" style="stop-color: rgba(255, 231, 219, 0);"/>
    </linearGradient>
    <linearGradient gradientUnits="userSpaceOnUse" x1="134.347" y1="211.685" x2="134.347" y2="247.753" id="gradient-8" spreadMethod="pad" gradientTransform="matrix(0.991876, 0, -0.064127, 0.962958, 50.651521, 45.943724)">
      <stop offset="0" style="stop-color: rgba(255, 210, 32, 0);"/>
      <stop offset="1" style="stop-color: rgba(57, 72, 58, 0);"/>
    </linearGradient>
    <style bx:fonts="Asap">@import url(https://fonts.googleapis.com/css2?family=Asap%3Aital%2Cwght%400%2C400%3B0%2C500%3B0%2C600%3B0%2C700%3B1%2C400%3B1%2C500%3B1%2C600%3B1%2C700&amp;display=swap);</style>
  </defs>
  <text style="fill: rgb(154, 154, 154); font-family: Asap; font-size: 13.407px; font-weight: 700; letter-spacing: 2.6px; paint-order: stroke; stroke: url(#gradient-1); stroke-linecap: round; stroke-linejoin: round; stroke-opacity: 0.77; stroke-width: 3.11429px; word-spacing: 15.4px; white-space: pre;" transform="matrix(3.3803, 0, 0, 4.326105, -542.45636, -587.105713)" x="216.867" y="197.409" dx="1.097">raczyk</text>
  <path d="M 152.38 211.685 C 145.247 211.685 138.274 213.8 132.342 217.764 C 126.411 221.727 121.788 227.36 119.058 233.95 C 116.328 240.541 115.614 247.793 117.006 254.789 C 118.397 261.786 121.832 268.213 126.877 273.257 C 131.921 278.301 138.347 281.736 145.344 283.128 C 152.34 284.519 159.592 283.805 166.183 281.075 C 172.774 278.345 178.407 273.722 182.37 267.791 C 186.333 261.86 188.448 254.886 188.448 247.753 L 170.414 247.753 C 170.414 251.32 169.357 254.806 167.375 257.772 C 165.393 260.738 162.577 263.049 159.282 264.414 C 155.986 265.779 152.36 266.136 148.862 265.44 C 145.364 264.744 142.151 263.027 139.629 260.505 C 137.106 257.983 135.389 254.769 134.693 251.271 C 133.997 247.773 134.354 244.147 135.719 240.852 C 137.084 237.556 139.396 234.74 142.361 232.758 C 145.327 230.777 148.814 229.719 152.38 229.719 L 152.38 211.685 Z" style="fill: rgb(241, 233, 11); fill-opacity: 0.66; stroke-miterlimit: 10; stroke: url(#gradient-3); stroke-width: 4px;"/>
  <path d="M 152.91 211.685 C 148.174 211.685 142.954 212.618 138.578 214.431 C 134.202 216.243 130.226 218.9 126.877 222.249 C 123.527 225.598 120.871 229.574 119.058 233.95 C 117.246 238.326 116.313 243.016 116.313 247.753 L 134.347 247.753 C 134.347 245.385 134.813 243.04 135.719 240.852 C 136.626 238.664 137.954 236.676 139.629 235.001 C 141.303 233.326 143.291 231.998 145.479 231.092 C 147.667 230.186 150.012 229.719 152.38 229.719 L 152.91 211.685 Z" style="stroke: url(#gradient-2); stroke-width: 2px; fill: rgba(69, 40, 253, 0.37);"/>
  <rect x="154.598" y="236.311" width="33.391" height="12.048" style="fill-opacity: 0.67; stroke-miterlimit: 1; stroke: url(#gradient-4); fill: rgb(241, 233, 11); stroke-width: 5px; stroke-linecap: round; stroke-linejoin: round;"/>
  <rect x="175.812" y="239.647" width="14.004" height="10.32" style="stroke-miterlimit: 1; stroke-width: 3px; stroke: url(#gradient-5); stroke-opacity: 0; fill: rgb(241, 233, 11);" transform="matrix(0.999972, 0.007422, -0.007422, 0.999972, -1.716526, 0.090977)"/>
  <rect x="156.821" y="238.55" width="29.552" height="8.254" style="stroke-miterlimit: 1; stroke-width: 3px; stroke: url(#gradient-6); stroke-opacity: 0; fill: rgb(241, 199, 11);"/>
  <path d="M 150.508 246.979 C 145.772 246.979 142.25 248.151 137.874 249.964 C 133.498 251.776 129.522 254.433 126.173 257.782 C 122.823 261.131 120.167 265.107 118.354 269.483 C 116.542 273.859 115.609 278.549 115.609 283.286 L 133.643 283.286 C 133.643 280.918 134.109 278.573 135.015 276.385 C 135.922 274.197 137.25 272.209 138.925 270.534 C 140.599 268.859 142.587 267.531 144.775 266.625 C 146.963 265.719 149.031 265.553 151.399 265.553 L 150.508 246.979 Z" style="stroke-width: 2px; fill: rgba(69, 40, 253, 0.37); stroke: url(#gradient-7);" transform="matrix(0.042994, -0.999075, 0.999075, 0.042994, -137.110062, 387.366669)"/>
  <path d="M 187.961 249.544 C 183.262 249.544 179.696 250.673 175.238 252.418 C 170.78 254.163 166.667 256.722 163.129 259.947 C 159.593 263.172 156.704 267.001 154.625 271.215 C 152.546 275.428 153.104 283.1 152.799 287.661 L 168.653 287.113 C 168.807 284.834 169.668 279.968 170.707 277.861 C 171.748 275.755 173.191 273.84 174.961 272.227 C 176.727 270.613 178.787 269.334 181.013 268.462 C 183.243 267.59 185.304 267.431 187.652 267.431 L 187.961 249.544 Z" style="stroke-width: 2px; fill: rgba(69, 40, 253, 0.37); stroke: url(#gradient-8);" transform="matrix(-0.999886, -0.015124, 0.015124, -0.999886, 334.919128, 536.582825)"/>
</svg>